<?xml version="1.0" encoding="UTF-8"?>
<svg id="Capa_1" data-name="Capa 1" xmlns="http://www.w3.org/2000/svg" viewBox="0 0 512 512">
  <defs>
    <style>
      .cls-1 {
        fill: #9080ba;
      }

      .cls-2 {
        fill: #333;
      }

      .cls-3 {
        fill: #eef9fb;
      }

      .cls-4 {
        fill: #6c58a1;
      }
    </style>
  </defs>
  <path class="cls-4" d="M457.44,384.13c.21-1.88.3-3.76-.49-5.56-.63-18.6-3.5-36.8-9.79-54.38-.49-1.36-.23-4.01-2.53-3.45-1.94.48-1.08,2.84-1.08,4.37-.03,25.88,0,51.77.02,77.65-.22.21-.29.47-.2.76-.25.47-.51.95-.76,1.42-.24.21-.35.48-.32.8-.39.44-.78.89-1.17,1.33,0,0,.08-.09.08-.08-.42.4-.83.8-1.25,1.19-.35,0-.64.11-.89.35-.49.23-.98.46-1.47.69-.61.09-1.22.18-1.83.27-34.22-.06-68.45-.12-102.67-.15-3.29,0-6.57,0-9.74-1.03-.77-.74-1.54-1.48-2.31-2.22-.31-.44-.61-.88-.92-1.32-1.02-2.8-1.06-5.71-1.06-8.66.03-37.76-.06-75.52.11-113.27.02-4.71-1.52-7.2-5.81-9.2-24.03-11.25-42.41-29.01-57.24-50.72,0-.37,0-.74,0-1.11,10.8-15.79,18-33.14,22.25-51.75,5.91,14.05,12.17,27.88,22.32,39.56,18.92,21.77,42.1,34.28,71.61,33.49,12.82-.34,25.58-1.7,38.49-.67,30.74,2.46,52.21,18.45,67.11,44.5,11.96,20.91,17.47,43.83,20.48,67.45,1.02,8,1.56,16.06,2.31,24.1.97,10.36-2.86,18.25-12.03,23.4-.69.3-1.39.59-2.08.89,0,0-.09.03-.09.03-1.25-.13-2.35.24-3.3,1.06-.75.06-1.49.12-2.24.18-1.08,0-2.17-.01-3.25-.02-1.11-.08-2.21-.15-3.32-.23-.75-.27-1.49-.53-2.24-.8-.24-.26-.54-.38-.89-.34-.58-.86-1.46-1-2.4-1h0c-.7-.44-1.4-.87-2.11-1.31,0,0,.09.09.09.09-.43-.32-.86-.63-1.29-.95,0,0-.04-.02-.04-.02-.36-.31-.72-.63-1.08-.94-.42-.41-.84-.83-1.25-1.24-.32-.33-.63-.65-.95-.98-.32-.44-.64-.88-.95-1.31-.71-1.25-1.41-2.5-2.12-3.75.08-.27,0-.47-.25-.61-.48-2.18-.95-4.35-1.43-6.53Z"/>
  <path class="cls-1" d="M256.11,221.83c0,.37,0,.74,0,1.11-15.25,22.45-34.42,40.45-59.35,51.76-3.73,1.69-3.67,4.52-3.66,7.71.02,37.82,0,75.64,0,113.46,0,11.15-2.41,13.55-13.59,13.54-34.7-.02-69.4-.05-104.1-.08-1.45-.82-2.89-1.63-4.34-2.45-.05-.39-.25-.68-.6-.86-.23-.24-.46-.49-.68-.73-.29-.5-.59-.99-.88-1.49,0-27.83,0-55.65,0-83.48-.65-.08-1.29-.16-1.94-.24-1.74,2.67-2.85,5.63-3.38,8.86-.16.71-.31,1.42-.47,2.13-4.9,13.7-6.43,28.02-7.67,42.38-.72,8.34-.48,16.9-6.36,23.85-2.87,2.09-5.68,4.28-9,5.64-1.56-.07-3.02.26-4.37,1.07-1.87-.02-3.73-.04-5.6-.06-1.36-.84-2.85-1.15-4.44-1.02,0,0-.24-.07-.24-.07-.62-.31-1.24-.63-1.86-.94-2.56-1.94-5.12-3.89-7.67-5.83-.37-1.38-1.05-2.56-2.21-3.44.03-.36-.09-.67-.36-.91-.32-.73-.65-1.45-.97-2.18-.21-.74-.43-1.48-.64-2.22-.13-.74-.25-1.48-.38-2.22-.05-1.1-.09-2.21-.14-3.31.41-3.59,1.2-7.15.6-10.8.1-.83.19-1.66.29-2.49.24-.32.27-.67.08-1.03.08-1.12.16-2.25.24-3.37,1.17-3.96,1.43-8.03,1.39-12.13.85-1.74.92-3.61.86-5.49.69-1.01.93-2.11.73-3.31.1-.74.2-1.48.3-2.22.75-1.37,1.06-2.83.88-4.39.1-.74.2-1.47.29-2.21,1.41-5.49,2.82-10.99,4.23-16.48.09-.37.18-.74.27-1.11.13-.33.27-.66.4-.99,5.26-15.14,11.64-29.69,21.63-42.44,14.4-18.39,33.27-28.31,56.43-30.4,10.63-.96,21.28-1.22,31.91-.34,43.3,3.59,72.99-16.66,93.26-53.23,3.45-6.22,5.97-12.95,8.92-19.44.35,1.23.77,2.44,1.05,3.69,3.95,17.42,11.21,33.39,21.19,48.17Z"/>
  <path class="cls-1" d="M78.24,179.6c-.09-27.88,22.36-50.05,50.68-50.06,26.87,0,49.28,22.47,49.5,49.65.22,27.78-22.05,50.47-49.64,50.57-28.19.1-50.45-21.99-50.54-50.15Z"/>
  <path class="cls-4" d="M333.93,179.63c-.33-27.28,21.71-49.62,49.34-50,27.85-.39,50.27,21.45,50.56,49.26.29,28.02-21.49,50.66-48.99,50.9-28.42.25-50.57-21.57-50.92-50.16Z"/>
  <path class="cls-2" d="M256.11,221.83c-9.97-14.77-17.24-30.74-21.19-48.17-.28-1.25-.7-2.46-1.05-3.69.88-2.98,1.36-6.15,2.72-8.89,4.03-8.12,9.84-12.28,21.01-12.1,9.02.15,16.09,5.86,19.08,14.72.7,2.08,1.12,4.25,1.68,6.37-4.25,18.61-11.45,35.95-22.25,51.75Z"/>
  <path class="cls-2" d="M302.44,129.64c-.2,1.99-1.29,3.36-2.97,4.33-4.75,2.75-9.48,5.54-14.24,8.28-2.92,1.68-5.84,1.81-7.54-1.47-1.52-2.94-.16-4.99,2.81-6.58,4.82-2.58,9.3-5.79,14.09-8.42,3.84-2.11,7.95.08,7.86,3.87Z"/>
  <path class="cls-2" d="M214.83,125.43c8.28.96,13.92,6.59,20.34,10.64,1.59,1.01,1.43,3.3.29,5.03-1.4,2.13-3.6,2.96-5.73,1.83-5.81-3.1-11.5-6.44-17.1-9.89-1.9-1.17-2.24-3.33-1.36-5.41.67-1.58,1.65-2.95,3.56-2.2Z"/>
  <path class="cls-2" d="M260.8,115.88c0,2.93.06,5.86-.02,8.79-.08,2.85-1.84,4.5-4.48,4.56-2.91.07-4.87-1.57-4.9-4.7-.06-6.04.08-12.09-.04-18.13-.07-3.8,2.56-3.85,5.1-3.91,2.62-.06,4.53.83,4.38,4.05-.15,3.11-.03,6.22-.03,9.34Z"/>
  <path class="cls-3" d="M486.57,402.81c.69-.3,1.39-.59,2.08-.89-.69.3-1.39.59-2.08.89Z"/>
  <path class="cls-3" d="M462.19,396.33c.32.33.63.65.95.98-.32-.33-.63-.65-.95-.98Z"/>
  <path class="cls-3" d="M464.4,398.55c.36.31.72.63,1.08.94-.36-.31-.72-.63-1.08-.94Z"/>
  <path class="cls-3" d="M442.6,404.96c.25-.47.51-.95.76-1.42-.25.47-.51.95-.76,1.42Z"/>
  <path class="cls-3" d="M320.11,404.79c.31.44.61.88.92,1.32-.31-.44-.61-.88-.92-1.32Z"/>
  <path class="cls-3" d="M441.11,407.09c.39-.44.78-.89,1.17-1.33-.39.44-.78.89-1.17,1.33Z"/>
  <path class="cls-3" d="M465.52,399.52c.43.32.86.63,1.29.95-.43-.32-.86-.63-1.29-.95Z"/>
  <path class="cls-3" d="M439.94,408.2c.42-.4.84-.79,1.25-1.19-.42.4-.83.79-1.25,1.19Z"/>
  <path class="cls-3" d="M437.58,409.24c.49-.23.98-.46,1.47-.69-.49.23-.98.46-1.47.69Z"/>
</svg>